<svg width="108" height="36" viewBox="0 0 108 36" fill="none" xmlns="http://www.w3.org/2000/svg">
<path d="M7.18566 22.8116C7.18566 22.1817 6.69072 21.671 6.08018 21.671H1.10549C0.494943 21.671 0 22.1817 0 22.8116V27.9442C0 28.5742 0.494943 29.0848 1.10549 29.0848H5.52743C6.13798 29.0848 6.63292 29.5955 6.63292 30.2254V34.7877C6.63292 35.4177 7.12786 35.9283 7.73841 35.9283H12.7131C13.3236 35.9283 13.8186 35.4177 13.8186 34.7877V29.6551C13.8186 29.0252 13.3236 28.5145 12.7131 28.5145H8.29115C7.68061 28.5145 7.18566 28.0039 7.18566 27.374V22.8116Z" fill="url(#paint0_linear_35_2010)"/>
<path d="M13.8186 1.14058C13.8186 0.510656 13.3236 0 12.7131 0H7.73841C7.12786 0 6.63292 0.510656 6.63292 1.14058V5.70291C6.63292 6.33283 6.13798 6.84349 5.52743 6.84349H1.10549C0.494943 6.84349 0 7.35414 0 7.98407V13.1167C0 13.7466 0.494943 14.2573 1.10549 14.2573H6.08018C6.69072 14.2573 7.18566 13.7466 7.18566 13.1167V8.55436C7.18566 7.92443 7.68061 7.41378 8.29115 7.41378H12.7131C13.3236 7.41378 13.8186 6.90312 13.8186 6.2732V1.14058Z" fill="url(#paint1_linear_35_2010)"/>
<path d="M22.1097 1.14058C22.1097 0.510656 22.6047 0 23.2152 0H28.1899C28.8005 0 29.2954 0.510656 29.2954 1.14058V5.70291C29.2954 6.33283 29.7903 6.84349 30.4009 6.84349H34.8228C35.4334 6.84349 35.9283 7.35414 35.9283 7.98407V13.1167C35.9283 13.7466 35.4334 14.2573 34.8228 14.2573H29.8481C29.2376 14.2573 28.7426 13.7466 28.7426 13.1167V8.55436C28.7426 7.92443 28.2477 7.41378 27.6372 7.41378H23.2152C22.6047 7.41378 22.1097 6.90312 22.1097 6.2732V1.14058Z" fill="url(#paint2_linear_35_2010)"/>
<path d="M28.7426 22.8116C28.7426 22.1817 29.2376 21.671 29.8481 21.671H34.8228C35.4334 21.671 35.9283 22.1817 35.9283 22.8116V27.9442C35.9283 28.5742 35.4334 29.0848 34.8228 29.0848H30.4009C29.7903 29.0848 29.2954 29.5955 29.2954 30.2254V34.7877C29.2954 35.4177 28.8005 35.9283 28.1899 35.9283H23.2152C22.6047 35.9283 22.1097 35.4177 22.1097 34.7877V29.6551C22.1097 29.0252 22.6047 28.5145 23.2152 28.5145H27.6372C28.2477 28.5145 28.7426 28.0039 28.7426 27.374V22.8116Z" fill="url(#paint3_linear_35_2010)"/>
<path d="M12.5804 18.6039C12.3267 18.2175 12.3267 17.7108 12.5804 17.3245L17.0489 10.2132C17.4874 9.5453 18.4409 9.5453 18.8794 10.2132L23.348 17.3245C23.6016 17.7108 23.6016 18.2175 23.348 18.6038L18.8794 25.7152C18.4409 26.383 17.4874 26.383 17.0489 25.7152L12.5804 18.6039Z" fill="url(#paint4_linear_35_2010)"/>
<path d="M44.6108 20.8505C44.6108 19.2082 44.9334 17.7517 45.5786 16.4809C46.2433 15.2101 47.1427 14.2326 48.2766 13.5483C49.4105 12.864 50.6716 12.5219 52.0597 12.5219C53.1154 12.5219 54.1223 12.7565 55.0803 13.2257C56.0382 13.6754 56.8007 14.2815 57.3677 15.0439V6.92219C57.3677 6.81064 57.4581 6.72021 57.5697 6.72021H61.33C61.4416 6.72021 61.532 6.81064 61.532 6.92219V28.8305C61.532 28.942 61.4416 29.0325 61.33 29.0325H57.5697C57.4581 29.0325 57.3677 28.942 57.3677 28.8305V26.6277C56.8594 27.4293 56.1458 28.0745 55.2269 28.5633C54.308 29.052 53.2425 29.2964 52.0303 29.2964C50.6618 29.2964 49.4105 28.9445 48.2766 28.2407C47.1427 27.5368 46.2433 26.5495 45.5786 25.2787C44.9334 23.9884 44.6108 22.5123 44.6108 20.8505ZM57.397 20.9091C57.397 19.9121 57.2015 19.0616 56.8105 18.3578C56.4195 17.6344 55.8916 17.087 55.2269 16.7155C54.5622 16.3245 53.8486 16.129 53.0861 16.129C52.3236 16.129 51.6198 16.3147 50.9746 16.6862C50.3294 17.0577 49.8016 17.6051 49.391 18.3285C49 19.0323 48.8045 19.873 48.8045 20.8505C48.8045 21.828 49 22.6883 49.391 23.4312C49.8016 24.1546 50.3294 24.7118 50.9746 25.1028C51.6393 25.4938 52.3432 25.6893 53.0861 25.6893C53.8486 25.6893 54.5622 25.5036 55.2269 25.1321C55.8916 24.7411 56.4195 24.1937 56.8105 23.4898C57.2015 22.7665 57.397 21.9062 57.397 20.9091Z" fill="#fdfdff"/>
<path d="M69.4456 12.7858C69.5571 12.7858 69.6475 12.8763 69.6475 12.9878V28.8305C69.6475 28.942 69.5571 29.0325 69.4456 29.0325H65.7438C65.6323 29.0325 65.5419 28.942 65.5419 28.8305V12.9878C65.5419 12.8763 65.6323 12.7858 65.7438 12.7858H69.4456Z" fill="#fdfdff"/>
<path d="M80.4782 25.2494L84.5382 12.9246C84.5655 12.8418 84.6428 12.7858 84.73 12.7858H88.6634C88.804 12.7858 88.9016 12.926 88.8528 13.0579L82.9904 28.9006C82.9611 28.9799 82.8855 29.0325 82.801 29.0325H78.0971C78.0124 29.0325 77.9368 28.9797 77.9075 28.9003L72.0737 13.0576C72.0252 12.9257 72.1228 12.7858 72.2633 12.7858H76.2265C76.3137 12.7858 76.391 12.8418 76.4183 12.9246L80.4782 25.2494Z" fill="#fdfdff"/>
<path d="M90.2037 20.8505C90.2037 19.2082 90.5263 17.7517 91.1715 16.4809C91.8362 15.2101 92.7258 14.2326 93.8402 13.5483C94.9741 12.864 96.2351 12.5219 97.6232 12.5219C98.8354 12.5219 99.8911 12.7663 100.79 13.255C101.709 13.7438 102.442 14.3597 102.99 15.1026V12.9878C102.99 12.8763 103.08 12.7858 103.192 12.7858H106.923C107.034 12.7858 107.125 12.8763 107.125 12.9878V28.8305C107.125 28.942 107.034 29.0325 106.923 29.0325H103.192C103.08 29.0325 102.99 28.942 102.99 28.8305V26.6571C102.462 27.4195 101.729 28.0549 100.79 28.5633C99.8716 29.052 98.806 29.2964 97.5939 29.2964C96.2253 29.2964 94.9741 28.9445 93.8402 28.2407C92.7258 27.5368 91.8362 26.5495 91.1715 25.2787C90.5263 23.9884 90.2037 22.5123 90.2037 20.8505ZM102.99 20.9091C102.99 19.9121 102.794 19.0616 102.403 18.3578C102.012 17.6344 101.484 17.087 100.82 16.7155C100.155 16.3245 99.4414 16.129 98.679 16.129C97.9165 16.129 97.2127 16.3147 96.5675 16.6862C95.9223 17.0577 95.3944 17.6051 94.9839 18.3285C94.5929 19.0323 94.3974 19.873 94.3974 20.8505C94.3974 21.828 94.5929 22.6883 94.9839 23.4312C95.3944 24.1546 95.9223 24.7118 96.5675 25.1028C97.2322 25.4938 97.936 25.6893 98.679 25.6893C99.4414 25.6893 100.155 25.5036 100.82 25.1321C101.484 24.7411 102.012 24.1937 102.403 23.4898C102.794 22.7665 102.99 21.9062 102.99 20.9091Z" fill="#fdfdff"/>
<path d="M65.4264 6.95436C65.4264 6.84301 65.5167 6.75274 65.628 6.75274H69.5015C69.6128 6.75274 69.7031 6.84301 69.7031 6.95436V10.8278C69.7031 10.9392 69.6128 11.0295 69.5015 11.0295H65.628C65.5167 11.0295 65.4264 10.9392 65.4264 10.8278V6.95436Z" fill="#fdfdff"/>
<defs>
<linearGradient id="paint0_linear_35_2010" x1="17.9642" y1="0" x2="17.9642" y2="35.9283" gradientUnits="userSpaceOnUse">
<stop stop-color="#1766FF"/>
<stop offset="1" stop-color="#16ABFF"/>
</linearGradient>
<linearGradient id="paint1_linear_35_2010" x1="17.9642" y1="0" x2="17.9642" y2="35.9283" gradientUnits="userSpaceOnUse">
<stop stop-color="#1766FF"/>
<stop offset="1" stop-color="#16ABFF"/>
</linearGradient>
<linearGradient id="paint2_linear_35_2010" x1="17.9642" y1="0" x2="17.9642" y2="35.9283" gradientUnits="userSpaceOnUse">
<stop stop-color="#1766FF"/>
<stop offset="1" stop-color="#16ABFF"/>
</linearGradient>
<linearGradient id="paint3_linear_35_2010" x1="17.9642" y1="0" x2="17.9642" y2="35.9283" gradientUnits="userSpaceOnUse">
<stop stop-color="#1766FF"/>
<stop offset="1" stop-color="#16ABFF"/>
</linearGradient>
<linearGradient id="paint4_linear_35_2010" x1="17.9642" y1="0" x2="17.9642" y2="35.9283" gradientUnits="userSpaceOnUse">
<stop stop-color="#1766FF"/>
<stop offset="1" stop-color="#16ABFF"/>
</linearGradient>
</defs>
</svg>
