<svg viewBox="0 0 321 37" fill="none" xmlns="http://www.w3.org/2000/svg"><path d="M50.9965 17.6084C50.9965 16.7573 51.8162 16.316 52.8249 16.316C53.9913 16.316 54.874 16.9149 55.3469 17.9237L58.8145 16.0322C57.5851 13.8571 55.3784 12.6907 52.8249 12.6907C49.578 12.6907 46.8354 14.4876 46.8354 17.703C46.8354 23.2512 54.9686 21.9903 54.9686 24.2915C54.9686 25.2057 54.0859 25.6471 52.7934 25.6471C51.2172 25.6471 50.1454 24.8905 49.704 23.598L46.1734 25.584C47.3082 28.0114 49.641 29.3354 52.7934 29.3354C56.1665 29.3354 59.1297 27.6961 59.1297 24.2915C59.1297 18.4911 50.9965 19.9412 50.9965 17.6084ZM70.2991 17.041V13.132H66.7369V8.71866L62.6703 9.9481V13.132H59.9277V17.041H62.6703V23.598C62.6703 27.8537 64.5932 29.5245 70.2991 28.894V25.2057C67.9663 25.3318 66.7369 25.3003 66.7369 23.598V17.041H70.2991ZM84.6529 13.132V14.9919C83.518 13.5734 81.8157 12.6907 79.5145 12.6907C75.3218 12.6907 71.8541 16.316 71.8541 21.013C71.8541 25.7101 75.3218 29.3354 79.5145 29.3354C81.8157 29.3354 83.518 28.4527 84.6529 27.0341V28.894H88.7195V13.132H84.6529ZM80.271 25.4579C77.7806 25.4579 75.9207 23.6611 75.9207 21.013C75.9207 18.365 77.7806 16.5681 80.271 16.5681C82.793 16.5681 84.6529 18.365 84.6529 21.013C84.6529 23.6611 82.793 25.4579 80.271 25.4579ZM106.94 28.894L100.414 20.9185L106.75 13.132H101.896L96.4737 20.0673V6.82721H92.4071V28.894H96.4737V21.7381L102.211 28.894H106.94ZM110.987 11.2406C112.374 11.2406 113.509 10.1057 113.509 8.75018C113.509 7.39465 112.374 6.22826 110.987 6.22826C109.631 6.22826 108.497 7.39465 108.497 8.75018C108.497 10.1057 109.631 11.2406 110.987 11.2406ZM108.969 28.894H113.036V13.132H108.969V28.894ZM125.522 12.6907C123.41 12.6907 121.77 13.4788 120.825 14.8974V13.132H116.758V28.894H120.825V20.3826C120.825 17.64 122.306 16.4736 124.292 16.4736C126.121 16.4736 127.413 17.5769 127.413 19.7205V28.894H131.48V19.2162C131.48 15.0235 128.863 12.6907 125.522 12.6907ZM147.026 13.132V15.0865C145.923 13.6049 144.22 12.6907 141.982 12.6907C137.506 12.6907 134.133 16.3475 134.133 20.7608C134.133 25.2057 137.506 28.831 141.982 28.831C144.22 28.831 145.923 27.9168 147.026 26.4352V28.1375C147.026 30.6279 145.45 32.0149 142.896 32.0149C140.469 32.0149 139.429 31.0377 138.767 29.8082L135.299 31.7943C136.686 34.3477 139.397 35.6402 142.77 35.6402C146.931 35.6402 150.998 33.3074 150.998 28.1375V13.132H147.026ZM142.613 25.0796C140.059 25.0796 138.199 23.2828 138.199 20.7608C138.199 18.2704 140.059 16.4736 142.613 16.4736C145.166 16.4736 147.026 18.2704 147.026 20.7608C147.026 23.2828 145.166 25.0796 142.613 25.0796Z" fill="#f8f9fa"></path><path d="M170.889 9.06542V6.4174C166.381 6.10216 163.985 8.46647 163.985 12.6592V13.132H161.463V15.78H163.985V28.894H166.728V15.78H170.889V13.132H166.728V12.6592C166.728 9.91657 168.146 8.84475 170.889 9.06542ZM179.523 29.3039C184.126 29.3039 187.846 25.6786 187.846 21.013C187.846 16.3475 184.126 12.7222 179.523 12.7222C174.921 12.7222 171.232 16.3475 171.232 21.013C171.232 25.6786 174.921 29.3039 179.523 29.3039ZM179.523 26.6243C176.402 26.6243 173.975 24.197 173.975 21.013C173.975 17.8291 176.402 15.4018 179.523 15.4018C182.676 15.4018 185.103 17.8291 185.103 21.013C185.103 24.197 182.676 26.6243 179.523 26.6243ZM201.955 13.132V21.4859C201.955 25.2057 199.906 26.6874 197.384 26.6874C194.956 26.6874 193.475 25.2373 193.475 22.6523V13.132H190.732V22.8099C190.732 26.845 193.159 29.3039 196.848 29.3039C199.054 29.3039 200.788 28.4842 201.955 26.6243V28.894H204.697V13.132H201.955ZM216.722 12.7222C214.515 12.7222 212.782 13.5418 211.615 15.4018V13.132H208.873V28.894H211.615V20.5402C211.615 16.8203 213.664 15.3387 216.186 15.3387C218.614 15.3387 220.095 16.7888 220.095 19.3738V28.894H222.838V19.2162C222.838 15.1811 220.41 12.7222 216.722 12.7222ZM239.717 6.82721V15.8431C238.456 13.9201 236.439 12.7222 233.759 12.7222C229.378 12.7222 225.784 16.3475 225.784 21.013C225.784 25.6786 229.378 29.3039 233.759 29.3039C236.439 29.3039 238.456 28.1059 239.717 26.183V28.894H242.46V6.82721H239.717ZM234.106 26.6558C230.954 26.6558 228.526 24.2285 228.526 21.013C228.526 17.7976 230.954 15.3702 234.106 15.3702C237.29 15.3702 239.717 17.7976 239.717 21.013C239.717 24.2285 237.29 26.6558 234.106 26.6558ZM259.666 13.132V15.8431C258.405 13.9201 256.388 12.7222 253.708 12.7222C249.326 12.7222 245.733 16.3475 245.733 21.013C245.733 25.6786 249.326 29.3039 253.708 29.3039C256.388 29.3039 258.405 28.1059 259.666 26.183V28.894H262.409V13.132H259.666ZM254.055 26.6558C250.903 26.6558 248.475 24.2285 248.475 21.013C248.475 17.7976 250.903 15.3702 254.055 15.3702C257.239 15.3702 259.666 17.7976 259.666 21.013C259.666 24.2285 257.239 26.6558 254.055 26.6558ZM275.139 15.78V13.132H270.946V8.71866L268.203 9.53828V13.132H265.082V15.78H268.203V24.3231C268.203 28.2636 270.41 29.5245 275.139 28.894V26.4352C272.333 26.5613 270.946 26.7189 270.946 24.3231V15.78H275.139ZM279.773 10.2633C280.781 10.2633 281.601 9.44371 281.601 8.43494C281.601 7.42617 280.781 6.57502 279.773 6.57502C278.732 6.57502 277.913 7.42617 277.913 8.43494C277.913 9.44371 278.732 10.2633 279.773 10.2633ZM278.386 28.894H281.128V13.132H278.386V28.894ZM292.72 29.3039C297.323 29.3039 301.043 25.6786 301.043 21.013C301.043 16.3475 297.323 12.7222 292.72 12.7222C288.118 12.7222 284.43 16.3475 284.43 21.013C284.43 25.6786 288.118 29.3039 292.72 29.3039ZM292.72 26.6243C289.6 26.6243 287.172 24.197 287.172 21.013C287.172 17.8291 289.6 15.4018 292.72 15.4018C295.873 15.4018 298.3 17.8291 298.3 21.013C298.3 24.197 295.873 26.6243 292.72 26.6243ZM312.125 12.7222C309.919 12.7222 308.185 13.5418 307.019 15.4018V13.132H304.276V28.894H307.019V20.5402C307.019 16.8203 309.068 15.3387 311.59 15.3387C314.017 15.3387 315.498 16.7888 315.498 19.3738V28.894H318.241V19.2162C318.241 15.1811 315.814 12.7222 312.125 12.7222Z" fill="#f8f9fa" fill-opacity="0.75"></path><rect opacity="0.5" x="5.02197" y="16.1304" width="15.5697" height="15.5697" rx="1.7965" fill="url(#paint0_linear_3038_4981)"></rect><path d="M12.8115 7.6974C12.8115 6.37449 13.884 5.30206 15.2069 5.30206H28.7804C30.1033 5.30206 31.1757 6.37449 31.1757 7.6974V21.2709C31.1757 22.5939 30.1033 23.6663 28.7804 23.6663H15.2069C13.884 23.6663 12.8115 22.5939 12.8115 21.271V7.6974Z" fill="url(#paint1_linear_3038_4981)"></path><defs><linearGradient id="paint0_linear_3038_4981" x1="12.8068" y1="5.8136" x2="12.8068" y2="31.7001" gradientUnits="userSpaceOnUse"><stop stop-color="#FF8024"></stop><stop offset="1" stop-color="#FFB224"></stop></linearGradient><linearGradient id="paint1_linear_3038_4981" x1="21.9936" y1="5.30206" x2="21.9936" y2="30.5333" gradientUnits="userSpaceOnUse"><stop stop-color="#FF8024"></stop><stop offset="1" stop-color="#FFB224"></stop></linearGradient></defs></svg>