<?xml version="1.0" standalone="no"?>
<!DOCTYPE svg PUBLIC "-//W3C//DTD SVG 20010904//EN"
 "http://www.w3.org/TR/2001/REC-SVG-20010904/DTD/svg10.dtd">
<svg version="1.0" xmlns="http://www.w3.org/2000/svg"
 width="491.000000pt" height="491.000000pt" viewBox="0 0 491.000000 491.000000"
 preserveAspectRatio="xMidYMid meet">
<metadata>
Created by potrace 1.14, written by Peter Selinger 2001-2017
</metadata>
<g transform="translate(0.000000,491.000000) scale(0.100000,-0.100000)"
fill="#000000" stroke="none">
<path d="M535 4902 c-102 -11 -261 -85 -337 -156 -107 -102 -203 -336 -193
-471 3 -46 25 -135 37 -151 4 -6 22 -37 39 -70 40 -75 134 -194 245 -309 47
-49 95 -109 105 -133 12 -27 28 -46 45 -52 39 -15 70 -43 248 -218 87 -86 167
-174 177 -194 11 -21 34 -45 52 -54 27 -14 180 -158 361 -340 28 -29 56 -67
61 -85 6 -19 20 -39 33 -45 64 -32 429 -390 434 -426 2 -13 15 -29 31 -36 51
-24 342 -311 416 -410 20 -27 52 -64 71 -84 19 -19 49 -61 65 -94 28 -56 30
-65 29 -174 -1 -63 -5 -151 -10 -195 -26 -225 77 -513 270 -759 166 -212 373
-343 634 -400 236 -52 429 -38 687 51 353 122 622 384 766 746 30 74 69 205
75 252 3 22 9 56 13 76 5 20 7 92 6 160 -3 134 -23 230 -85 400 -29 82 -117
244 -142 264 -7 6 -31 34 -53 63 -48 64 -214 205 -295 251 -138 78 -240 118
-375 146 -106 22 -173 24 -286 9 -140 -19 -210 -17 -273 6 -126 48 -157 75
-824 735 -194 193 -501 496 -682 675 -446 441 -731 721 -819 804 -93 86 -238
182 -307 202 -52 15 -158 23 -219 16z"/>
</g>
</svg>
